#tb 0: 33/1000
#tb 1: 1/48000
0,          0,          0,        1,   535680, 0x889c32cf
1,          0,          0,     1624,     6496, 0x00000000
0,          1,          1,        1,   535680, 0x0b1ef044
1,       1624,       1624,     1596,     6384, 0x00000000
0,          2,          2,        1,   535680, 0xa7d0818b
1,       3220,       3220,     1596,     6384, 0x00000000
0,          3,          3,        1,   535680, 0xf392e4e1
1,       4816,       4816,     1596,     6384, 0x00000000
0,          4,          4,        1,   535680, 0x08480c69
1,       6412,       6412,     1596,     6384, 0x00000000
0,          5,          5,        1,   535680, 0x2b8af1ed
1,       8008,       8008,     1624,     6496, 0xe2034d04
0,          6,          6,        1,   535680, 0x0d58e062
1,       9632,       9632,     1596,     6384, 0x089c9157
0,          7,          7,        1,   535680, 0xd140ced0
1,      11228,      11228,     1596,     6384, 0xeed5743c
0,          8,          8,        1,   535680, 0xbd0e6652
1,      12824,      12824,     1596,     6384, 0x71de6b34
0,          9,          9,        1,   535680, 0xdc2f2a6b
1,      14420,      14420,     1596,     6384, 0xc0d67710
0,         10,         10,        1,   535680, 0x97c31a38
1,      16016,      16016,     1624,     6496, 0x35786490
0,         11,         11,        1,   535680, 0x1a2bdf38
1,      17640,      17640,     1596,     6384, 0xdf1c99a2
0,         12,         12,        1,   535680, 0xb3af3ac4
1,      19236,      19236,     1596,     6384, 0xca9591ad
0,         13,         13,        1,   535680, 0x07a52577
1,      20832,      20832,     1596,     6384, 0x6f0d9c3d
0,         14,         14,        1,   535680, 0x78407368
1,      22428,      22428,     1596,     6384, 0xfacbbaee
0,         15,         15,        1,   535680, 0xd2a9efc3
1,      24024,      24024,     1624,     6496, 0x927fb136
0,         16,         16,        1,   535680, 0x36df2f29
1,      25648,      25648,     1596,     6384, 0x9d4f2572
0,         17,         17,        1,   535680, 0x9821d8f7
1,      27244,      27244,     1596,     6384, 0x2a3c6d08
0,         18,         18,        1,   535680, 0xf64321aa
1,      28840,      28840,     1596,     6384, 0x4282b1e0
0,         19,         19,        1,   535680, 0x53e4d9aa
1,      30436,      30436,     1596,     6384, 0xc4a77b9f
0,         20,         20,        1,   535680, 0xdbd6f853
1,      32032,      32032,     1624,     6496, 0x2af6a14f
0,         21,         21,        1,   535680, 0x5d40cf8b
1,      33656,      33656,     1596,     6384, 0x4d734169
0,         22,         22,        1,   535680, 0xe624af9d
1,      35252,      35252,     1596,     6384, 0xb91b5865
0,         23,         23,        1,   535680, 0xd9dbb4cd
1,      36848,      36848,     1596,     6384, 0x9dce2417
0,         24,         24,        1,   535680, 0xf14e72ec
1,      38444,      38444,     1596,     6384, 0xb7c4e1ce
0,         25,         25,        1,   535680, 0xb35c18f6
1,      40040,      40040,     1624,     6496, 0xef0dc07a
0,         26,         26,        1,   535680, 0xc96d7757
1,      41664,      41664,     1596,     6384, 0x4ad21d10
0,         27,         27,        1,   535680, 0xdfb937df
1,      43260,      43260,     1596,     6384, 0xcfe14682
0,         28,         28,        1,   535680, 0x40cd71d7
1,      44856,      44856,     1596,     6384, 0x07be48eb
0,         29,         29,        1,   535680, 0x15e176d6
1,      46452,      46452,     1596,     6384, 0x09de3498
0,         30,         30,        1,   535680, 0x7f891b24
1,      48048,      48048,     1624,     6496, 0xab2e9686
0,         31,         31,        1,   535680, 0xb87a8c32
1,      49672,      49672,     1596,     6384, 0x3aba3ccc
0,         32,         32,        1,   535680, 0x0c01541f
1,      51268,      51268,     1596,     6384, 0x0a905ec3
0,         33,         33,        1,   535680, 0x9eee99b3
1,      52864,      52864,     1596,     6384, 0x76a93ce4
0,         34,         34,        1,   535680, 0xd65eb689
1,      54460,      54460,     1596,     6384, 0xa99063a4
0,         35,         35,        1,   535680, 0x6e733cfa
1,      56056,      56056,     1624,     6496, 0xc16bb88d
0,         36,         36,        1,   535680, 0xac536670
1,      57680,      57680,     1596,     6384, 0x650379bf
0,         37,         37,        1,   535680, 0x002275b8
1,      59276,      59276,     1596,     6384, 0x4e0749fe
0,         38,         38,        1,   535680, 0x6a5385cb
1,      60872,      60872,     1596,     6384, 0x778e8d12
0,         39,         39,        1,   535680, 0xd129ade3
1,      62468,      62468,     1596,     6384, 0x9fa8c494
0,         40,         40,        1,   535680, 0x32cab5d7
1,      64064,      64064,     1624,     6496, 0x61d5bead
0,         41,         41,        1,   535680, 0x08be1c8f
1,      65688,      65688,     1596,     6384, 0x4da9bc3c
0,         42,         42,        1,   535680, 0x59e1fba0
1,      67284,      67284,     1596,     6384, 0xa72b6f93
0,         43,         43,        1,   535680, 0x138aee3a
1,      68880,      68880,     1596,     6384, 0x811f5f77
0,         44,         44,        1,   535680, 0x4cfbcd5e
1,      70476,      70476,     1596,     6384, 0x83ea5e3d
0,         45,         45,        1,   535680, 0xf6cf0fb4
1,      72072,      72072,     1624,     6496, 0x78bab460
0,         46,         46,        1,   535680, 0xb13a06de
1,      73696,      73696,     1596,     6384, 0xc9a07432
0,         47,         47,        1,   535680, 0x59176f00
1,      75292,      75292,     1596,     6384, 0x4b4f2a34
0,         48,         48,        1,   535680, 0xf84b4ca3
1,      76888,      76888,     1596,     6384, 0x4d707a53
0,         49,         49,        1,   535680, 0x7fd09f73
1,      78484,      78484,     1596,     6384, 0x703efb60
0,         50,         50,        1,   535680, 0x3be383b8
1,      80080,      80080,     1624,     6496, 0x319a77bb
0,         51,         51,        1,   535680, 0xa7118e51
1,      81704,      81704,     1596,     6384, 0xbdfd82ec
0,         52,         52,        1,   535680, 0xbd83120c
1,      83300,      83300,     1596,     6384, 0x413c3503
0,         53,         53,        1,   535680, 0x3bc9d256
1,      84896,      84896,     1596,     6384, 0xe6e666b3
0,         54,         54,        1,   535680, 0xb6c87f87
1,      86492,      86492,     1596,     6384, 0xa09c7342
0,         55,         55,        1,   535680, 0xe80d110a
1,      88088,      88088,     1624,     6496, 0x60cba846
0,         56,         56,        1,   535680, 0xb3a83362
1,      89712,      89712,     1596,     6384, 0x0ba34308
0,         57,         57,        1,   535680, 0xfb39eb52
1,      91308,      91308,     1596,     6384, 0xdc3a65f0
0,         58,         58,        1,   535680, 0xbf6e1220
1,      92904,      92904,     1596,     6384, 0x1ebf9dc4
0,         59,         59,        1,   535680, 0x9ecdfbae
1,      94500,      94500,     1596,     6384, 0xbbcb1449
0,         60,         60,        1,   535680, 0x069a65f5
1,      96096,      96096,     1624,     6496, 0x926574eb
0,         61,         61,        1,   535680, 0x206e372c
1,      97720,      97720,     1596,     6384, 0xb4da92f1
0,         62,         62,        1,   535680, 0x58c83dd4
1,      99316,      99316,     1596,     6384, 0xdbbd21e0
0,         63,         63,        1,   535680, 0xc3562b03
1,     100912,     100912,     1596,     6384, 0x08510eff
0,         64,         64,        1,   535680, 0xd1ed85a0
1,     102508,     102508,     1596,     6384, 0x9534b7ca
0,         65,         65,        1,   535680, 0xb6205f4b
1,     104104,     104104,     1624,     6496, 0x50a5ed30
0,         66,         66,        1,   535680, 0xaedf8bfa
1,     105728,     105728,     1596,     6384, 0xf5ac2f7c
0,         67,         67,        1,   535680, 0xa48d5dea
1,     107324,     107324,     1596,     6384, 0x4fe1fa55
0,         68,         68,        1,   535680, 0xff82e7c1
1,     108920,     108920,     1596,     6384, 0xd61c4c05
0,         69,         69,        1,   535680, 0xc9560222
1,     110516,     110516,     1596,     6384, 0x56d11b45
0,         70,         70,        1,   535680, 0x0fafa549
1,     112112,     112112,     1624,     6496, 0x3906084b
0,         71,         71,        1,   535680, 0x8d556ccb
1,     113736,     113736,     1596,     6384, 0x1ef31fed
0,         72,         72,        1,   535680, 0x802aac1f
1,     115332,     115332,     1596,     6384, 0x58ed82f5
0,         73,         73,        1,   535680, 0x7d0fa168
1,     116928,     116928,     1596,     6384, 0xb31ccd1f
0,         74,         74,        1,   535680, 0x1a9255c9
1,     118524,     118524,     1596,     6384, 0xfb648285
0,         75,         75,        1,   535680, 0xb4ec7e35
1,     120120,     120120,     1624,     6496, 0xfae2950b
0,         76,         76,        1,   535680, 0x48fac072
1,     121744,     121744,     1596,     6384, 0xe28c8357
0,         77,         77,        1,   535680, 0x1e260135
1,     123340,     123340,     1596,     6384, 0xda718e60
0,         78,         78,        1,   535680, 0xce4d5079
1,     124936,     124936,     1596,     6384, 0x27516999
0,         79,         79,        1,   535680, 0x13e5e4ed
1,     126532,     126532,     1596,     6384, 0x0ba07921
0,         80,         80,        1,   535680, 0x592305ec
1,     128128,     128128,     1624,     6496, 0xcfbecfab
0,         81,         81,        1,   535680, 0x9e227508
1,     129752,     129752,     1596,     6384, 0xae4cedcd
0,         82,         82,        1,   535680, 0x1d37e5ea
1,     131348,     131348,     1596,     6384, 0x917b4707
0,         83,         83,        1,   535680, 0x7eae7692
1,     132944,     132944,     1596,     6384, 0x8671b28e
0,         84,         84,        1,   535680, 0xf452e4b9
1,     134540,     134540,     1596,     6384, 0x9a1238fa
0,         85,         85,        1,   535680, 0x1460e7e9
1,     136136,     136136,     1624,     6496, 0x23b8f8ca
0,         86,         86,        1,   535680, 0xc6d8a638
1,     137760,     137760,     1596,     6384, 0x3903bcd6
0,         87,         87,        1,   535680, 0x854f5fb0
1,     139356,     139356,     1596,     6384, 0x0532b267
0,         88,         88,        1,   535680, 0x854f5fb0
1,     140952,     140952,     1596,     6384, 0xde931220
0,         89,         89,        1,   535680, 0x70a02d87
1,     142548,     142548,     1596,     6384, 0x4ed70a80
0,         90,         90,        1,   535680, 0x9a4ad464
0,         91,         91,        1,   535680, 0x9a4ad464
1,     144144,     144144,     1624,     6496, 0x4a52d5a1
0,         92,         92,        1,   535680, 0x9a4ad464
1,     145768,     145768,     1596,     6384, 0xc1be5760
0,         93,         93,        1,   535680, 0x9a4ad464
1,     147364,     147364,     1596,     6384, 0x790d69ba
0,         94,         94,        1,   535680, 0x9a4ad464
1,     148960,     148960,     1596,     6384, 0x9d73e6cf
0,         95,         95,        1,   535680, 0x9a4ad464
1,     150556,     150556,     1568,     6272, 0xbc0fc725
